<mxfile host="Electron" modified="2024-01-02T14:06:27.322Z" agent="Mozilla/5.0 (Windows NT 10.0; Win64; x64) AppleWebKit/537.36 (KHTML, like Gecko) draw.io/22.1.11 Chrome/114.0.5735.289 Electron/25.9.8 Safari/537.36" etag="LaiMmt_AMtEqogc6ObMS" version="22.1.11" type="device">
  <diagram name="Страница — 1" id="RKi_icXz2-DhgMr9pO3O">
    <mxGraphModel dx="4029" dy="2366" grid="1" gridSize="10" guides="1" tooltips="1" connect="1" arrows="1" fold="1" page="1" pageScale="1" pageWidth="3300" pageHeight="2339" math="0" shadow="0">
      <root>
        <mxCell id="0" />
        <mxCell id="1" parent="0" />
        <mxCell id="yvXOFUWGFq0K7LZusgIt-1" value="&lt;font style=&quot;font-size: 31px;&quot;&gt;Пользователь 1&lt;/font&gt;" style="shape=umlActor;verticalLabelPosition=bottom;verticalAlign=top;html=1;outlineConnect=0;fontSize=16;fontFamily=GOST type B;fontStyle=2" parent="1" vertex="1">
          <mxGeometry x="362" y="1059" width="210" height="350" as="geometry" />
        </mxCell>
        <mxCell id="yvXOFUWGFq0K7LZusgIt-2" value="&lt;span style=&quot;font-size: 31px;&quot;&gt;Пользователь 2&lt;/span&gt;" style="shape=umlActor;verticalLabelPosition=bottom;verticalAlign=top;html=1;outlineConnect=0;fontSize=16;fontFamily=GOST type B;fontStyle=2" parent="1" vertex="1">
          <mxGeometry x="2756" y="1056" width="210" height="350" as="geometry" />
        </mxCell>
        <mxCell id="yvXOFUWGFq0K7LZusgIt-3" value="&lt;font style=&quot;font-size: 30px;&quot;&gt;Отправить &lt;br&gt;текстовое сообщение&lt;/font&gt;" style="ellipse;whiteSpace=wrap;html=1;fontSize=16;fontFamily=GOST type B;fontStyle=2" parent="1" vertex="1">
          <mxGeometry x="820" y="240" width="440" height="200" as="geometry" />
        </mxCell>
        <mxCell id="yvXOFUWGFq0K7LZusgIt-6" value="&lt;font style=&quot;font-size: 30px;&quot;&gt;Просмотреть текстовые сообщения&lt;/font&gt;" style="ellipse;whiteSpace=wrap;html=1;fontSize=16;fontFamily=GOST type B;fontStyle=2" parent="1" vertex="1">
          <mxGeometry x="2120" y="210" width="440" height="200" as="geometry" />
        </mxCell>
        <mxCell id="yvXOFUWGFq0K7LZusgIt-7" value="&lt;font style=&quot;font-size: 30px;&quot;&gt;Регистрация&lt;/font&gt;" style="ellipse;whiteSpace=wrap;html=1;fontSize=16;fontFamily=GOST type B;fontStyle=2" parent="1" vertex="1">
          <mxGeometry x="2682" y="465" width="440" height="200" as="geometry" />
        </mxCell>
        <mxCell id="yvXOFUWGFq0K7LZusgIt-9" value="&lt;font style=&quot;font-size: 30px;&quot;&gt;Аутентификация&lt;/font&gt;" style="ellipse;whiteSpace=wrap;html=1;fontSize=16;fontFamily=GOST type B;fontStyle=2" parent="1" vertex="1">
          <mxGeometry x="1770" y="1000" width="440" height="200" as="geometry" />
        </mxCell>
        <mxCell id="yvXOFUWGFq0K7LZusgIt-15" value="&lt;span style=&quot;font-size: 30px;&quot;&gt;Просмотр информации&amp;nbsp;&lt;br&gt;во всех чатах&lt;br&gt;&lt;/span&gt;" style="ellipse;whiteSpace=wrap;html=1;fontSize=16;fontFamily=GOST type B;fontStyle=2" parent="1" vertex="1">
          <mxGeometry x="1310" y="1700" width="440" height="200" as="geometry" />
        </mxCell>
        <mxCell id="yvXOFUWGFq0K7LZusgIt-17" value="&lt;font style=&quot;font-size: 30px;&quot;&gt;Создать&amp;nbsp;чат с пользователем&lt;br&gt;&lt;/font&gt;" style="ellipse;whiteSpace=wrap;html=1;fontSize=16;fontFamily=GOST type B;fontStyle=2" parent="1" vertex="1">
          <mxGeometry x="220" y="440" width="440" height="200" as="geometry" />
        </mxCell>
        <mxCell id="yvXOFUWGFq0K7LZusgIt-18" value="&lt;font style=&quot;font-size: 30px;&quot;&gt;Получения уведомления &lt;br&gt;о новых сообщениях&amp;nbsp;&lt;/font&gt;" style="ellipse;whiteSpace=wrap;html=1;fontSize=16;fontFamily=GOST type B;fontStyle=2" parent="1" vertex="1">
          <mxGeometry x="1610" y="1390" width="440" height="200" as="geometry" />
        </mxCell>
        <mxCell id="yvXOFUWGFq0K7LZusgIt-25" value="" style="endArrow=none;html=1;rounded=0;fontSize=12;startSize=8;endSize=8;curved=1;entryX=0;entryY=0.5;entryDx=0;entryDy=0;fontFamily=GOST type B;fontStyle=2" parent="1" target="yvXOFUWGFq0K7LZusgIt-9" edge="1">
          <mxGeometry width="50" height="50" relative="1" as="geometry">
            <mxPoint x="662" y="1186" as="sourcePoint" />
            <mxPoint x="1532" y="851" as="targetPoint" />
          </mxGeometry>
        </mxCell>
        <mxCell id="yvXOFUWGFq0K7LZusgIt-26" value="" style="endArrow=none;html=1;rounded=0;fontSize=12;startSize=8;endSize=8;curved=1;entryX=0;entryY=0.5;entryDx=0;entryDy=0;fontFamily=GOST type B;fontStyle=2" parent="1" target="yvXOFUWGFq0K7LZusgIt-15" edge="1">
          <mxGeometry width="50" height="50" relative="1" as="geometry">
            <mxPoint x="662" y="1425" as="sourcePoint" />
            <mxPoint x="1471.9999999999927" y="2015" as="targetPoint" />
          </mxGeometry>
        </mxCell>
        <mxCell id="yvXOFUWGFq0K7LZusgIt-28" value="" style="endArrow=none;html=1;rounded=0;fontSize=12;startSize=8;endSize=8;curved=1;entryX=0;entryY=0.5;entryDx=0;entryDy=0;fontFamily=GOST type B;fontStyle=2" parent="1" target="yvXOFUWGFq0K7LZusgIt-18" edge="1">
          <mxGeometry width="50" height="50" relative="1" as="geometry">
            <mxPoint x="662" y="1305" as="sourcePoint" />
            <mxPoint x="1532" y="1405" as="targetPoint" />
          </mxGeometry>
        </mxCell>
        <mxCell id="yvXOFUWGFq0K7LZusgIt-29" value="" style="endArrow=none;html=1;rounded=0;fontSize=12;startSize=8;endSize=8;curved=1;fontFamily=GOST type B;exitX=0.513;exitY=1.002;exitDx=0;exitDy=0;exitPerimeter=0;fontStyle=2" parent="1" source="yvXOFUWGFq0K7LZusgIt-17" edge="1">
          <mxGeometry width="50" height="50" relative="1" as="geometry">
            <mxPoint x="434.5" y="642" as="sourcePoint" />
            <mxPoint x="490" y="940" as="targetPoint" />
          </mxGeometry>
        </mxCell>
        <mxCell id="yvXOFUWGFq0K7LZusgIt-33" value="" style="endArrow=none;html=1;rounded=0;fontSize=12;startSize=8;endSize=8;curved=1;exitX=0.5;exitY=1;exitDx=0;exitDy=0;fontFamily=GOST type B;fontStyle=2" parent="1" source="yvXOFUWGFq0K7LZusgIt-7" edge="1">
          <mxGeometry width="50" height="50" relative="1" as="geometry">
            <mxPoint x="1982" y="895" as="sourcePoint" />
            <mxPoint x="2862" y="945" as="targetPoint" />
          </mxGeometry>
        </mxCell>
        <mxCell id="yvXOFUWGFq0K7LZusgIt-34" value="" style="endArrow=none;html=1;rounded=0;fontSize=12;startSize=8;endSize=8;curved=1;exitX=1;exitY=0.5;exitDx=0;exitDy=0;fontFamily=GOST type B;fontStyle=2" parent="1" source="yvXOFUWGFq0K7LZusgIt-9" edge="1">
          <mxGeometry width="50" height="50" relative="1" as="geometry">
            <mxPoint x="1812" y="1001" as="sourcePoint" />
            <mxPoint x="2662" y="1186" as="targetPoint" />
          </mxGeometry>
        </mxCell>
        <mxCell id="yvXOFUWGFq0K7LZusgIt-35" value="" style="endArrow=none;html=1;rounded=0;fontSize=12;startSize=8;endSize=8;curved=1;exitX=1;exitY=0.5;exitDx=0;exitDy=0;fontFamily=GOST type B;fontStyle=2" parent="1" source="yvXOFUWGFq0K7LZusgIt-15" edge="1">
          <mxGeometry width="50" height="50" relative="1" as="geometry">
            <mxPoint x="1992" y="2165" as="sourcePoint" />
            <mxPoint x="2662" y="1425" as="targetPoint" />
          </mxGeometry>
        </mxCell>
        <mxCell id="yvXOFUWGFq0K7LZusgIt-37" value="" style="endArrow=none;html=1;rounded=0;fontSize=12;startSize=8;endSize=8;curved=1;exitX=1;exitY=0.5;exitDx=0;exitDy=0;fontFamily=GOST type B;fontStyle=2" parent="1" source="yvXOFUWGFq0K7LZusgIt-18" edge="1">
          <mxGeometry width="50" height="50" relative="1" as="geometry">
            <mxPoint x="1882" y="1405" as="sourcePoint" />
            <mxPoint x="2662" y="1305" as="targetPoint" />
          </mxGeometry>
        </mxCell>
        <mxCell id="yvXOFUWGFq0K7LZusgIt-39" value="&lt;font style=&quot;font-size: 70px;&quot;&gt;UML диаграмма вариантов использования&lt;/font&gt;" style="text;html=1;align=center;verticalAlign=middle;resizable=0;points=[];autosize=1;strokeColor=none;fillColor=none;fontSize=40;fontFamily=GOST type B;fontStyle=2" parent="1" vertex="1">
          <mxGeometry x="1006" y="56" width="1270" height="100" as="geometry" />
        </mxCell>
        <mxCell id="eMedJIxuSSqrgAgGPM89-9" value="&lt;font style=&quot;font-size: 30px;&quot;&gt;Подключения к чату&amp;nbsp;&lt;/font&gt;" style="ellipse;whiteSpace=wrap;html=1;fontSize=16;fontFamily=GOST type B;fontStyle=2" parent="1" vertex="1">
          <mxGeometry x="1530" y="510" width="440" height="200" as="geometry" />
        </mxCell>
        <mxCell id="eMedJIxuSSqrgAgGPM89-10" value="" style="endArrow=none;html=1;rounded=0;fontSize=12;startSize=8;endSize=8;curved=1;entryX=0;entryY=0.5;entryDx=0;entryDy=0;fontFamily=GOST type B;fontStyle=2" parent="1" target="eMedJIxuSSqrgAgGPM89-9" edge="1">
          <mxGeometry width="50" height="50" relative="1" as="geometry">
            <mxPoint x="582" y="945" as="sourcePoint" />
            <mxPoint x="1542" y="1475" as="targetPoint" />
          </mxGeometry>
        </mxCell>
        <mxCell id="eMedJIxuSSqrgAgGPM89-11" value="" style="endArrow=none;html=1;rounded=0;fontSize=12;startSize=8;endSize=8;curved=1;exitX=1;exitY=0.5;exitDx=0;exitDy=0;fontFamily=GOST type B;fontStyle=2" parent="1" source="eMedJIxuSSqrgAgGPM89-9" edge="1">
          <mxGeometry width="50" height="50" relative="1" as="geometry">
            <mxPoint x="1892" y="1475" as="sourcePoint" />
            <mxPoint x="2742" y="945" as="targetPoint" />
          </mxGeometry>
        </mxCell>
        <mxCell id="eMedJIxuSSqrgAgGPM89-13" value="&lt;font style=&quot;font-size: 30px;&quot;&gt;Отключения от &lt;br&gt;чата&lt;/font&gt;" style="ellipse;whiteSpace=wrap;html=1;fontSize=16;fontFamily=GOST type B;fontStyle=2" parent="1" vertex="1">
          <mxGeometry x="1260" y="760" width="440" height="200" as="geometry" />
        </mxCell>
        <mxCell id="eMedJIxuSSqrgAgGPM89-14" value="" style="endArrow=none;html=1;rounded=0;fontSize=12;startSize=8;endSize=8;curved=1;entryX=0;entryY=0.5;entryDx=0;entryDy=0;fontFamily=GOST type B;fontStyle=2" parent="1" target="eMedJIxuSSqrgAgGPM89-13" edge="1">
          <mxGeometry width="50" height="50" relative="1" as="geometry">
            <mxPoint x="662" y="1065" as="sourcePoint" />
            <mxPoint x="1537" y="1575" as="targetPoint" />
          </mxGeometry>
        </mxCell>
        <mxCell id="eMedJIxuSSqrgAgGPM89-15" value="" style="endArrow=none;html=1;rounded=0;fontSize=12;startSize=8;endSize=8;curved=1;exitX=1;exitY=0.5;exitDx=0;exitDy=0;fontFamily=GOST type B;fontStyle=2" parent="1" source="eMedJIxuSSqrgAgGPM89-13" edge="1">
          <mxGeometry width="50" height="50" relative="1" as="geometry">
            <mxPoint x="1887" y="1575" as="sourcePoint" />
            <mxPoint x="2662" y="1065" as="targetPoint" />
          </mxGeometry>
        </mxCell>
        <mxCell id="NcFnU1oXduoGqtaf48Cy-1" value="&lt;font style=&quot;font-size: 30px;&quot;&gt;Просмотр списка всех пользователей&lt;/font&gt;" style="ellipse;whiteSpace=wrap;html=1;fontSize=16;fontFamily=GOST type B;fontStyle=2" parent="1" vertex="1">
          <mxGeometry x="2130" y="1910" width="440" height="200" as="geometry" />
        </mxCell>
        <mxCell id="NcFnU1oXduoGqtaf48Cy-3" value="&lt;font style=&quot;font-size: 30px;&quot;&gt;Просмотр списка всех&lt;br&gt;&amp;nbsp;друзей&lt;/font&gt;" style="ellipse;whiteSpace=wrap;html=1;fontSize=16;fontFamily=GOST type B;fontStyle=2" parent="1" vertex="1">
          <mxGeometry x="420" y="1900" width="440" height="200" as="geometry" />
        </mxCell>
        <mxCell id="NcFnU1oXduoGqtaf48Cy-5" value="&lt;font face=&quot;GOST type B&quot; style=&quot;font-size: 18px;&quot;&gt;&lt;span&gt;&amp;lt;&amp;lt;include&amp;gt;&amp;gt;&lt;/span&gt;&lt;/font&gt;" style="text;html=1;align=center;verticalAlign=middle;resizable=0;points=[];autosize=1;strokeColor=none;fillColor=none;fontStyle=2" parent="1" vertex="1">
          <mxGeometry x="1080" y="1870" width="110" height="40" as="geometry" />
        </mxCell>
        <mxCell id="NcFnU1oXduoGqtaf48Cy-6" value="" style="endArrow=open;html=1;rounded=0;endFill=0;dashed=1;strokeWidth=2;fontStyle=2;fontSize=33;exitX=1;exitY=0;exitDx=0;exitDy=0;entryX=0;entryY=1;entryDx=0;entryDy=0;" parent="1" source="eMedJIxuSSqrgAgGPM89-9" target="yvXOFUWGFq0K7LZusgIt-6" edge="1">
          <mxGeometry width="50" height="50" relative="1" as="geometry">
            <mxPoint x="1751" y="622" as="sourcePoint" />
            <mxPoint x="1912" y="475" as="targetPoint" />
          </mxGeometry>
        </mxCell>
        <mxCell id="NcFnU1oXduoGqtaf48Cy-7" value="&lt;font face=&quot;GOST type B&quot; style=&quot;font-size: 18px;&quot;&gt;&lt;span&gt;&amp;lt;&amp;lt;include&amp;gt;&amp;gt;&lt;/span&gt;&lt;/font&gt;" style="text;html=1;align=center;verticalAlign=middle;resizable=0;points=[];autosize=1;strokeColor=none;fillColor=none;fontStyle=2" parent="1" vertex="1">
          <mxGeometry x="1905" y="440" width="110" height="40" as="geometry" />
        </mxCell>
        <mxCell id="NcFnU1oXduoGqtaf48Cy-12" value="" style="endArrow=open;html=1;rounded=0;endFill=0;dashed=1;strokeWidth=2;fontStyle=2;fontSize=33;exitX=0;exitY=0;exitDx=0;exitDy=0;entryX=1;entryY=1;entryDx=0;entryDy=0;" parent="1" source="eMedJIxuSSqrgAgGPM89-9" target="yvXOFUWGFq0K7LZusgIt-3" edge="1">
          <mxGeometry width="50" height="50" relative="1" as="geometry">
            <mxPoint x="1576" y="628" as="sourcePoint" />
            <mxPoint x="1401" y="485" as="targetPoint" />
          </mxGeometry>
        </mxCell>
        <mxCell id="NcFnU1oXduoGqtaf48Cy-13" value="&lt;font face=&quot;GOST type B&quot; style=&quot;font-size: 18px;&quot;&gt;&lt;span&gt;&amp;lt;&amp;lt;include&amp;gt;&amp;gt;&lt;/span&gt;&lt;/font&gt;" style="text;html=1;align=center;verticalAlign=middle;resizable=0;points=[];autosize=1;strokeColor=none;fillColor=none;fontStyle=2" parent="1" vertex="1">
          <mxGeometry x="1395" y="440" width="110" height="40" as="geometry" />
        </mxCell>
        <mxCell id="NcFnU1oXduoGqtaf48Cy-15" value="" style="endArrow=open;html=1;rounded=0;endFill=0;dashed=1;strokeWidth=2;fontStyle=2;fontSize=33;exitX=1;exitY=1;exitDx=0;exitDy=0;" parent="1" source="yvXOFUWGFq0K7LZusgIt-15" target="NcFnU1oXduoGqtaf48Cy-1" edge="1">
          <mxGeometry width="50" height="50" relative="1" as="geometry">
            <mxPoint x="1802" y="1925" as="sourcePoint" />
            <mxPoint x="2060" y="1950" as="targetPoint" />
          </mxGeometry>
        </mxCell>
        <mxCell id="NcFnU1oXduoGqtaf48Cy-16" value="" style="endArrow=open;html=1;rounded=0;endFill=0;dashed=1;strokeWidth=2;fontStyle=2;fontSize=33;exitX=0;exitY=1;exitDx=0;exitDy=0;entryX=1;entryY=0.5;entryDx=0;entryDy=0;" parent="1" source="yvXOFUWGFq0K7LZusgIt-15" target="NcFnU1oXduoGqtaf48Cy-3" edge="1">
          <mxGeometry width="50" height="50" relative="1" as="geometry">
            <mxPoint x="1442" y="2322" as="sourcePoint" />
            <mxPoint x="1282" y="2035" as="targetPoint" />
          </mxGeometry>
        </mxCell>
        <mxCell id="NcFnU1oXduoGqtaf48Cy-18" value="&lt;font face=&quot;GOST type B&quot; style=&quot;font-size: 18px;&quot;&gt;&lt;span&gt;&amp;lt;&amp;lt;include&amp;gt;&amp;gt;&lt;/span&gt;&lt;/font&gt;" style="text;html=1;align=center;verticalAlign=middle;resizable=0;points=[];autosize=1;strokeColor=none;fillColor=none;fontStyle=2" parent="1" vertex="1">
          <mxGeometry x="1930" y="1870" width="110" height="40" as="geometry" />
        </mxCell>
        <mxCell id="HvtFO4G6ZBNFSusr1pbk-4" value="" style="endArrow=open;html=1;rounded=0;endFill=0;dashed=1;strokeWidth=2;fontStyle=2;fontSize=33;exitX=0;exitY=1;exitDx=0;exitDy=0;entryX=0.962;entryY=0.314;entryDx=0;entryDy=0;entryPerimeter=0;" parent="1" source="yvXOFUWGFq0K7LZusgIt-9" target="HvtFO4G6ZBNFSusr1pbk-5" edge="1">
          <mxGeometry width="50" height="50" relative="1" as="geometry">
            <mxPoint x="1912" y="1180" as="sourcePoint" />
            <mxPoint x="1606" y="1214" as="targetPoint" />
          </mxGeometry>
        </mxCell>
        <mxCell id="HvtFO4G6ZBNFSusr1pbk-5" value="&lt;font style=&quot;font-size: 30px;&quot;&gt;Авторизация&amp;nbsp;&lt;/font&gt;" style="ellipse;whiteSpace=wrap;html=1;fontSize=16;fontFamily=GOST type B;fontStyle=2" parent="1" vertex="1">
          <mxGeometry x="1157" y="1190" width="440" height="200" as="geometry" />
        </mxCell>
        <mxCell id="HvtFO4G6ZBNFSusr1pbk-6" value="&lt;font face=&quot;GOST type B&quot; style=&quot;font-size: 18px;&quot;&gt;&lt;span&gt;&amp;lt;&amp;lt;include&amp;gt;&amp;gt;&lt;/span&gt;&lt;/font&gt;" style="text;html=1;align=center;verticalAlign=middle;resizable=0;points=[];autosize=1;strokeColor=none;fillColor=none;fontStyle=2" parent="1" vertex="1">
          <mxGeometry x="1610" y="1160" width="110" height="40" as="geometry" />
        </mxCell>
      </root>
    </mxGraphModel>
  </diagram>
</mxfile>
